<?xml version="1.0" ?><svg viewBox="0 0 32 32" xmlns="http://www.w3.org/2000/svg"><defs><style>.cls-1{fill:none;stroke:#000;stroke-linecap:round;stroke-linejoin:round;}</style></defs><title/><g id="echo"><ellipse class="cls-1" cx="16.5" cy="4" rx="7" ry="1.5"/><path class="cls-1" d="M9.5,22.51c0,.82,2,2,7,2s7-1.17,7-2V15.08c0,.82-4,1.39-7,1.41s-7-.58-7-1.41Z"/><path class="cls-1" d="M23.5,4.5V27.85c0,.84-3.13,1.62-7,1.62s-7-.77-7-1.62V4.5"/><circle cx="13.5" cy="18.5" r="0.5"/><circle cx="15.5" cy="18.5" r="0.5"/><circle cx="17.5" cy="18.5" r="0.5"/><circle cx="19.5" cy="18.5" r="0.5"/><circle cx="11.5" cy="17.5" r="0.5"/><circle cx="21.5" cy="17.5" r="0.5"/><circle cx="13.5" cy="20.5" r="0.5"/><circle cx="15.5" cy="20.5" r="0.5"/><circle cx="17.5" cy="20.5" r="0.5"/><circle cx="19.5" cy="20.5" r="0.5"/><circle cx="11.5" cy="19.5" r="0.5"/><circle cx="21.5" cy="19.5" r="0.5"/><circle cx="13.5" cy="22.5" r="0.5"/><circle cx="15.5" cy="22.5" r="0.5"/><circle cx="17.5" cy="22.5" r="0.5"/><circle cx="19.5" cy="22.5" r="0.5"/><circle cx="11.5" cy="21.5" r="0.5"/><circle cx="21.5" cy="21.5" r="0.5"/></g></svg>